<svg width="160" height="39" viewBox="0 0 160 39" fill="none" xmlns="http://www.w3.org/2000/svg">
<path fill-rule="evenodd" clip-rule="evenodd" d="M39.0672 5.22664C40.9603 5.22664 42.6731 5.70649 44.2061 6.65598C45.7391 7.61228 46.9522 8.96334 47.8454 10.7194C48.7385 12.4755 49.1851 14.5105 49.1851 16.8247C49.1851 19.1389 48.7385 21.1877 47.8454 22.9709C46.9522 24.7542 45.7391 26.1359 44.2061 27.1161C42.6731 28.0961 40.9603 28.5862 39.0672 28.5862C37.441 28.5862 36.008 28.2459 34.7682 27.5652C33.5285 26.8846 32.522 26.027 31.7489 24.9925V39H26.15V5.59419H31.7489V8.86125C32.4688 7.83008 33.4619 6.96227 34.7282 6.26802C35.9946 5.57377 37.441 5.22664 39.0672 5.22664ZM61.3425 5.22664C63.4488 5.22664 65.335 5.68947 67.0013 6.61514C68.6676 7.54081 69.9606 8.85445 70.8805 10.5561C71.8002 12.2576 72.2601 14.2111 72.2601 16.4164C72.2601 17.2331 72.2069 17.9682 72.1003 18.6216H55.9036C56.037 20.2552 56.5969 21.5348 57.5833 22.4605C58.5698 23.3862 59.7829 23.849 61.2225 23.849C63.3021 23.849 64.7818 22.9369 65.6616 21.1127H71.7002C71.0604 23.2908 69.834 25.0809 68.0211 26.483C66.2081 27.8885 63.9819 28.5862 61.3425 28.5862C59.2096 28.5862 57.2968 28.1029 55.6038 27.1365C53.9108 26.1699 52.591 24.8019 51.6446 23.0321C50.6981 21.2625 50.2249 19.2206 50.2249 16.9064C50.2249 14.5684 50.6915 12.5129 51.6246 10.7398C52.5578 8.97015 53.8641 7.61228 55.5438 6.65598C57.2234 5.70649 59.1562 5.22664 61.3425 5.22664ZM149.083 5.22664C151.189 5.22664 153.075 5.68947 154.741 6.61514C156.408 7.54081 157.7 8.85445 158.62 10.5561C159.54 12.2576 160 14.2111 160 16.4164C160 17.2331 159.946 17.9682 159.84 18.6216H143.644C143.776 20.2552 144.336 21.5348 145.324 22.4605C146.31 23.3862 147.522 23.849 148.962 23.849C151.042 23.849 152.521 22.9369 153.401 21.1127H159.44C158.8 23.2908 157.574 25.0809 155.761 26.483C153.947 27.8885 151.721 28.5862 149.083 28.5862C146.95 28.5862 145.036 28.1029 143.344 27.1365C141.65 26.1699 140.331 24.8019 139.385 23.0321C138.438 21.2625 137.965 19.2206 137.965 16.9064C137.965 14.5684 138.431 12.5129 139.365 10.7398C140.298 8.97015 141.604 7.61228 143.284 6.65598C144.964 5.70649 146.896 5.22664 149.083 5.22664ZM5.53215 20.5475L15.8299 26.6393C15.43 26.9796 14.9635 27.2858 14.4636 27.5582C13.1971 28.2388 11.7308 28.5791 10.0645 28.5791C8.43153 28.5791 6.89853 28.2047 5.53215 27.422V20.5475ZM107.811 5.5952V18.051C107.811 19.8479 108.25 21.2295 109.13 22.196C110.01 23.1625 111.21 23.6458 112.729 23.6458C114.276 23.6458 115.489 23.1625 116.369 22.196C117.249 21.2295 117.688 19.8479 117.688 18.051V5.5952H123.327V28.2196H117.688V25.3609C116.969 26.3411 116.029 27.1103 114.869 27.6684C113.709 28.2264 112.45 28.5056 111.09 28.5056C109.357 28.5056 107.824 28.1312 106.491 27.3825C105.158 26.6337 104.111 25.5312 103.352 24.0746C102.592 22.618 102.212 20.8824 102.212 18.8677V5.5952H107.811ZM86.3371 5.26884V11.2721H84.8575C83.0979 11.2721 81.7715 11.6941 80.8784 12.5381C79.9851 13.382 79.5386 14.8522 79.5386 16.9486V28.22H73.9398V5.59554H79.5386V9.10765C80.2585 7.90972 81.1982 6.97043 82.358 6.28979C83.5177 5.60916 84.8441 5.26884 86.3371 5.26884ZM138.045 5.26884V11.2721H136.565C134.805 11.2721 133.479 11.6941 132.586 12.5381C131.693 13.382 131.246 14.8522 131.246 16.9486V28.22H125.647V5.59554H131.246V9.10765C131.966 7.90972 132.906 6.97043 134.065 6.28979C135.225 5.60916 136.551 5.26884 138.045 5.26884ZM95.8155 0V5.59486H100.774V10.2913H95.8155V21.236C95.8155 21.9983 95.9954 22.5495 96.3554 22.89C96.7152 23.2303 97.3218 23.4004 98.1749 23.4004H100.774V28.2194H97.2551C92.5361 28.2194 90.1766 25.8779 90.1766 21.1951V10.2913H87.5372V5.59486H90.1766V0H95.8155ZM23.0618 15.8164V28.204H17.4296V24.9029C17.163 25.3113 16.863 25.6857 16.4965 26.026L11.0976 22.861L23.0618 15.8164ZM4.69899 14.4888V26.9105C3.29929 25.9575 2.1662 24.6644 1.33305 22.9627C0.499892 21.2951 0.0666524 19.3894 0 17.2454L4.69899 14.4888ZM37.5876 10.2498C36.5745 10.2498 35.6214 10.5152 34.7282 11.0461C33.8351 11.577 33.1152 12.3461 32.5686 13.3535C32.0221 14.3608 31.7489 15.5451 31.7489 16.9064C31.7489 18.2677 32.0221 19.4555 32.5686 20.4594C33.1152 21.4667 33.8351 22.2358 34.7282 22.7667C35.6214 23.2976 36.5745 23.563 37.5876 23.563C38.6274 23.563 39.5939 23.2908 40.487 22.7463C41.3801 22.2018 42.1 21.4258 42.6465 20.4185C43.1931 19.4112 43.4664 18.2133 43.4664 16.8247C43.4664 15.4635 43.1931 14.286 42.6465 13.2922C42.1 12.2985 41.3801 11.543 40.487 11.0257C39.5939 10.5084 38.6274 10.2498 37.5876 10.2498ZM23.061 5.60678V14.8294L15.8292 19.0835V7.17225C16.4625 7.64869 16.9956 8.19321 17.4289 8.80579V5.60678H23.061ZM3.86584 7.44484L9.43131 10.7119L0.0333261 16.2591C0.0666524 14.1832 0.499892 12.3454 1.33305 10.7459C1.99958 9.4187 2.86605 8.32967 3.86584 7.44484ZM61.1825 9.92305C59.7961 9.92305 58.6297 10.3519 57.6833 11.2095C56.7369 12.0671 56.157 13.2582 55.9436 14.7828H66.4614C66.4348 13.3126 65.9149 12.1351 64.9017 11.2503C63.8886 10.3655 62.6489 9.92305 61.1825 9.92305ZM148.923 9.92305C147.536 9.92305 146.37 10.3519 145.424 11.2095C144.476 12.0671 143.896 13.2582 143.684 14.7828H154.201C154.175 13.3126 153.655 12.1351 152.641 11.2503C151.629 10.3655 150.389 9.92305 148.923 9.92305ZM10.1305 5.23276C11.7635 5.23276 13.1965 5.57309 14.4629 6.25373C14.6295 6.35582 14.8295 6.45791 14.9961 6.59404V13.0261L4.63167 6.90033C4.73165 6.79823 4.86495 6.73017 4.96494 6.66211C6.49794 5.70921 8.2309 5.23276 10.1305 5.23276Z" fill="white"/>
</svg>
