<svg width="144" height="44" viewBox="0 0 144 44" fill="none" xmlns="http://www.w3.org/2000/svg">
<path fill-rule="evenodd" clip-rule="evenodd" d="M21.7087 0C33.6781 0 43.4174 9.8699 43.4174 22C43.4174 34.1301 33.6781 44 21.7087 44C9.73922 44 0 34.1301 0 22C0 9.8699 9.73922 0 21.7087 0ZM21.7087 2.4909C11.0931 2.4909 2.45791 11.242 2.45791 22C2.45791 32.758 11.0931 41.5091 21.7087 41.5091C32.3243 41.5091 40.9594 32.758 40.9594 22C40.9594 11.242 32.3243 2.4909 21.7087 2.4909ZM22.9375 6.72576C22.9375 10.5627 26.0184 13.6832 29.8045 13.6832V16.1742C27.0865 16.1742 24.644 14.9825 22.9375 13.0952V14.4812C22.9375 18.3181 26.0184 21.4387 29.8045 21.4387V23.9296C27.0865 23.9296 24.644 22.7378 22.9375 20.8507V22.2366C22.9375 26.0735 26.0184 29.1941 29.8045 29.1941V31.685C27.0865 31.685 24.644 30.4934 22.9375 28.6061V37.2739H20.4796V28.6078C18.7748 30.4934 16.3323 31.685 13.6142 31.685V29.1941C17.4004 29.1941 20.4796 26.0735 20.4796 22.2366V20.8524C18.7748 22.7378 16.3323 23.9296 13.6142 23.9296V21.4387C17.4004 21.4387 20.4796 18.3181 20.4796 14.4812V13.0952C18.7748 14.9825 16.3323 16.1742 13.6142 16.1742V13.6832C17.4004 13.6832 20.4796 10.5627 20.4796 6.72576H22.9375ZM138.923 25.983L141.756 31.2701V25.983H144V35.5772H141.686L138.923 30.3039V35.5772H136.678V25.983H138.923ZM91.4829 25.9846C92.1419 25.9846 92.592 26.439 92.592 27.1068V34.4546C92.592 35.1225 92.1419 35.5769 91.4829 35.5769H86.6167C85.9578 35.5769 85.5092 35.1225 85.5092 34.4546V27.1068C85.5092 26.439 85.9578 25.9846 86.6167 25.9846H91.4829ZM110.565 25.9828C111.224 25.9828 111.672 26.439 111.672 27.1068V35.5769H109.233V33.1884H107.088V35.5769H104.647V27.1068C104.647 26.439 105.096 25.9828 105.755 25.9828H110.565ZM132.957 25.9846C133.616 25.9846 134.066 26.439 134.066 27.1068V34.4546C134.066 35.1225 133.616 35.5769 132.957 35.5769H128.091C127.432 35.5769 126.983 35.1225 126.983 34.4546V27.1068C126.983 26.439 127.432 25.9846 128.091 25.9846H132.957ZM124.372 25.984V35.5764H121.947V25.984H124.372ZM62.2168 25.9839L63.6478 28.7262L64.839 25.9839H67.463L64.8544 30.9431L67.4339 35.5763H64.7415L63.3396 32.9326L61.9926 35.5763H59.4269L62.1757 30.787L59.497 25.9839H62.2168ZM101.151 25.9834C101.726 25.9834 102.215 26.4535 102.215 27.0641V31.4561C102.215 32.0371 101.726 32.535 101.151 32.535H101.081L102.245 35.5757H99.8602L98.6825 32.535H97.6453V35.5757H95.2045V25.9834H101.151ZM58.132 25.9837V28.0444H54.3733V29.7218H57.627V31.7669H54.3733V33.5015H58.132V35.576H51.9478V25.9837H58.132ZM74.9976 25.9834C75.571 25.9834 76.0623 26.4535 76.0623 27.0641V31.9954C76.0623 32.5644 75.571 33.0745 74.9976 33.0745H71.6462V35.5757H69.2054V25.9834H74.9976ZM80.7786 25.9837V33.5015H83.7945V35.576H78.3532V25.9837H80.7786ZM120.134 25.9837V28.0582H117.989V35.576H115.549V28.0582H113.402V25.9837H120.134ZM89.9972 28.0591H88.0767C88.0202 28.0591 87.95 28.1302 87.95 28.2153V33.374C87.95 33.4451 88.0202 33.5024 88.0767 33.5024H89.9972C90.081 33.5024 90.1512 33.4451 90.1512 33.374V28.2153C90.1512 28.1302 90.081 28.0591 89.9972 28.0591ZM131.471 28.0591H129.55C129.494 28.0591 129.424 28.1302 129.424 28.2153V33.374C129.424 33.4451 129.494 33.5024 129.55 33.5024H131.471C131.555 33.5024 131.625 33.4451 131.625 33.374V28.2153C131.625 28.1302 131.555 28.0591 131.471 28.0591ZM108.896 27.9446H107.381C107.213 27.9446 107.088 28.073 107.088 28.2292V31.1138H109.233V28.2292C109.233 28.0591 109.092 27.9446 108.896 27.9446ZM73.4965 28.044H71.6462V31.0432H73.4965C73.5667 31.0432 73.6232 30.9721 73.6232 30.9149V28.1863C73.6232 28.1152 73.5667 28.044 73.4965 28.044ZM99.6633 28.044H97.6453V30.6026H99.6633C99.7198 30.6026 99.79 30.5315 99.79 30.4743V28.1863C99.79 28.1152 99.7198 28.044 99.6633 28.044ZM88.8116 8.42325V11.4605H85.6707V22.4666H82.0984V11.4605H78.9577V8.42325H88.8116ZM142.398 8.42307C143.24 8.42307 143.958 9.10997 143.958 10.005V16.4334C143.958 17.2851 143.24 18.0137 142.398 18.0137H142.297L144 22.4664H140.51L138.787 18.0137H137.267V22.4664H133.694V8.42307H142.398ZM69.7119 8.42325V19.242C69.7119 19.346 69.8146 19.4293 69.8967 19.4293H72.5036C72.6269 19.4293 72.7294 19.346 72.7294 19.242V8.42325H76.3017V20.8638C76.3017 21.7797 75.6034 22.4666 74.7407 22.4666H67.7195C66.8791 22.4666 66.1396 21.7797 66.1396 20.8638V8.42325H69.7119ZM60.6921 8.42394C61.6574 8.42394 62.3147 9.08829 62.3147 10.0666V20.8229C62.3147 21.8012 61.6574 22.4656 60.6921 22.4656H53.5699C52.6045 22.4656 51.9473 21.8012 51.9473 20.8229V10.0666C51.9473 9.08829 52.6045 8.42394 53.5699 8.42394H60.6921ZM98.9174 8.42273C100.436 8.42273 101.73 9.69246 101.73 11.2727V19.5953C101.73 21.1981 100.436 22.4661 98.9174 22.4661H91.4649V8.42273H98.9174ZM114.176 8.42394C115.141 8.42394 115.8 9.08829 115.8 10.0666V20.8229C115.8 21.8012 115.141 22.4656 114.176 22.4656H107.054C106.089 22.4656 105.432 21.8012 105.432 20.8229V10.0666C105.432 9.08829 106.089 8.42394 107.054 8.42394H114.176ZM128.247 8.42394C129.212 8.42394 129.869 9.08829 129.869 10.0666V20.8229C129.869 21.8012 129.212 22.4656 128.247 22.4656H121.124C120.159 22.4656 119.502 21.8012 119.502 20.8229V10.0666C119.502 9.08829 120.159 8.42394 121.124 8.42394H128.247ZM97.1715 11.4409H95.0371V19.4288H97.1715C97.7671 19.4288 98.178 19.0125 98.178 18.4088V12.4591C98.178 11.8555 97.7671 11.4409 97.1715 11.4409ZM58.5165 11.4612H55.7044C55.6222 11.4612 55.5195 11.5653 55.5195 11.6902V19.2427C55.5195 19.3468 55.6222 19.4283 55.7044 19.4283H58.5165C58.6398 19.4283 58.7425 19.3468 58.7425 19.2427V11.6902C58.7425 11.5653 58.6398 11.4612 58.5165 11.4612ZM112.001 11.4612H109.189C109.107 11.4612 109.004 11.5653 109.004 11.6902V19.2427C109.004 19.3468 109.107 19.4283 109.189 19.4283H112.001C112.124 19.4283 112.227 19.3468 112.227 19.2427V11.6902C112.227 11.5653 112.124 11.4612 112.001 11.4612ZM126.071 11.4612H123.258C123.176 11.4612 123.074 11.5653 123.074 11.6902V19.2427C123.074 19.3468 123.176 19.4283 123.258 19.4283H126.071C126.195 19.4283 126.297 19.3468 126.297 19.2427V11.6902C126.297 11.5653 126.195 11.4612 126.071 11.4612ZM140.222 11.4395H137.267V15.1845H140.222C140.304 15.1845 140.407 15.0805 140.407 14.9972V11.6477C140.407 11.5437 140.304 11.4395 140.222 11.4395Z" fill="white"/>
</svg>
