<svg width="278" height="32" viewBox="0 0 278 32" fill="none" xmlns="http://www.w3.org/2000/svg">
<path d="M46.5098 14.6719V27.9999H49.4334V22.2505H54.8152V27.9999H57.7388V14.6719H54.8152V19.7865H49.4334V14.6719H46.5098Z" fill="white"/>
<path d="M63.1062 14.6719V27.9999H73.1993V25.5359H66.0299V22.2692H72.4731V19.9919H66.0299V17.1359H73.0504V14.6719H63.1062Z" fill="white"/>
<path d="M81.3262 22.8479L83.0581 17.9572H83.0953L84.7713 22.8479H81.3262ZM81.6056 14.6719L76.5776 27.9999H79.5199L80.5627 25.0319H85.5348L86.5404 27.9999H89.5758L84.6037 14.6719H81.6056Z" fill="white"/>
<path d="M93.5159 14.6719V27.9999H102.92V25.5359H96.4395V14.6719H93.5159Z" fill="white"/>
<path d="M108.581 17.1359V27.9999H111.504V17.1359H115.489V14.6719H104.595V17.1359H108.581Z" fill="white"/>
<path d="M119.816 14.6719V27.9999H122.74V22.2505H128.121V27.9999H131.045V14.6719H128.121V19.7865H122.74V14.6719H119.816Z" fill="white"/>
<path d="M139.857 22.8105V27.9999H142.781V22.8852L147.715 14.6719H144.457L141.365 19.9359L138.255 14.6719H134.978L139.857 22.8105Z" fill="white"/>
<path d="M161.595 23.5758H158.764C158.752 24.3972 158.901 25.1065 159.211 25.7038C159.521 26.3012 159.937 26.7928 160.459 27.1785C160.993 27.5642 161.601 27.8442 162.284 28.0185C162.979 28.2052 163.693 28.2985 164.425 28.2985C165.331 28.2985 166.126 28.1928 166.809 27.9812C167.504 27.7696 168.081 27.4772 168.541 27.1038C169.012 26.7181 169.366 26.2638 169.602 25.7412C169.838 25.2185 169.956 24.6523 169.956 24.0425C169.956 23.2958 169.794 22.6861 169.472 22.2132C169.161 21.7278 168.789 21.3421 168.354 21.0558C167.92 20.7696 167.479 20.5643 167.032 20.4398C166.598 20.3029 166.256 20.2096 166.008 20.1598C165.176 19.9483 164.5 19.7741 163.978 19.6372C163.469 19.5003 163.066 19.3634 162.768 19.2265C162.482 19.0896 162.29 18.9403 162.191 18.7785C162.091 18.6167 162.042 18.4052 162.042 18.1438C162.042 17.8576 162.104 17.6212 162.228 17.4345C162.352 17.2478 162.507 17.0923 162.693 16.9678C162.892 16.8434 163.109 16.7563 163.345 16.7065C163.581 16.6567 163.817 16.6318 164.053 16.6318C164.413 16.6318 164.742 16.6629 165.04 16.7252C165.35 16.7874 165.623 16.8932 165.859 17.0425C166.095 17.1918 166.281 17.3972 166.418 17.6585C166.567 17.9198 166.654 18.2496 166.679 18.6478H169.509C169.509 17.8763 169.36 17.2229 169.062 16.6878C168.777 16.1403 168.385 15.6923 167.889 15.3438C167.392 14.9954 166.821 14.7465 166.176 14.5972C165.543 14.4354 164.878 14.3545 164.183 14.3545C163.587 14.3545 162.991 14.4354 162.395 14.5972C161.8 14.7589 161.266 15.0078 160.794 15.3438C160.322 15.6798 159.937 16.1029 159.639 16.6132C159.354 17.1109 159.211 17.7021 159.211 18.3865C159.211 18.9963 159.323 19.5189 159.546 19.9545C159.782 20.3776 160.086 20.7323 160.459 21.0185C160.831 21.3047 161.253 21.5412 161.725 21.7278C162.197 21.9021 162.681 22.0514 163.178 22.1758C163.662 22.3127 164.14 22.4372 164.611 22.5492C165.083 22.6612 165.505 22.7918 165.878 22.9412C166.25 23.0905 166.548 23.2772 166.772 23.5012C167.007 23.7252 167.125 24.0176 167.125 24.3785C167.125 24.7145 167.038 24.9945 166.865 25.2185C166.691 25.4301 166.474 25.5981 166.213 25.7225C165.952 25.8469 165.673 25.9341 165.375 25.9838C165.077 26.0212 164.798 26.0398 164.537 26.0398C164.152 26.0398 163.78 25.9963 163.42 25.9092C163.06 25.8096 162.743 25.6665 162.47 25.4798C162.209 25.2807 161.998 25.0256 161.837 24.7145C161.675 24.4034 161.595 24.0238 161.595 23.5758Z" fill="white"/>
<path d="M187.151 27.9999L190.727 14.6719H187.859L185.68 23.8559H185.643L183.371 14.6719H180.634L178.325 23.7439H178.287L176.184 14.6719H173.26L176.78 27.9999H179.74L181.956 18.9279H181.993L184.246 27.9999H187.151Z" fill="white"/>
<path d="M194.867 14.6719V27.9999H197.791V14.6719H194.867Z" fill="white"/>
<path d="M206.095 17.1359V27.9999H209.019V17.1359H213.004V14.6719H202.11V17.1359H206.095Z" fill="white"/>
<path d="M226.195 19.1518H229.026C228.938 18.3803 228.728 17.6958 228.392 17.0985C228.057 16.5012 227.629 16.0034 227.107 15.6052C226.598 15.1945 226.014 14.8834 225.357 14.6718C224.711 14.4603 224.022 14.3545 223.29 14.3545C222.271 14.3545 221.353 14.5349 220.534 14.8958C219.727 15.2567 219.044 15.7545 218.486 16.3892C217.927 17.0238 217.499 17.7705 217.201 18.6292C216.903 19.4754 216.754 20.3963 216.754 21.3918C216.754 22.3625 216.903 23.2709 217.201 24.1172C217.499 24.9509 217.927 25.6789 218.486 26.3012C219.044 26.9234 219.727 27.4149 220.534 27.7758C221.353 28.1242 222.271 28.2985 223.29 28.2985C224.109 28.2985 224.86 28.1741 225.543 27.9252C226.226 27.6762 226.822 27.3154 227.331 26.8425C227.839 26.3696 228.249 25.7972 228.56 25.1252C228.87 24.4532 229.063 23.7003 229.137 22.8665H226.307C226.195 23.7625 225.884 24.4843 225.376 25.0318C224.878 25.5794 224.184 25.8532 223.29 25.8532C222.632 25.8532 222.073 25.7287 221.614 25.4798C221.154 25.2185 220.781 24.8763 220.497 24.4532C220.211 24.0301 219.999 23.5572 219.864 23.0345C219.739 22.4994 219.677 21.9518 219.677 21.3918C219.677 20.8069 219.739 20.2407 219.864 19.6932C219.999 19.1456 220.211 18.6603 220.497 18.2372C220.781 17.8016 221.154 17.4594 221.614 17.2105C222.073 16.9492 222.632 16.8185 223.29 16.8185C223.649 16.8185 223.991 16.8807 224.314 17.0052C224.649 17.1172 224.947 17.2789 225.208 17.4905C225.469 17.7021 225.686 17.9509 225.86 18.2372C226.033 18.5109 226.144 18.8158 226.195 19.1518Z" fill="white"/>
<path d="M233.927 14.6719V27.9999H236.851V22.2505H242.232V27.9999H245.156V14.6719H242.232V19.7865H236.851V14.6719H233.927Z" fill="white"/>
<path d="M250.523 14.6719V27.9999H260.616V25.5359H253.447V22.2692H259.89V19.9919H253.447V17.1359H260.467V14.6719H250.523Z" fill="white"/>
<path d="M268.315 20.7012V16.9492H271.518C272.189 16.9492 272.691 17.0985 273.027 17.3972C273.362 17.6834 273.529 18.1501 273.529 18.7972C273.529 19.4692 273.362 19.9545 273.027 20.2532C272.691 20.5519 272.189 20.7012 271.518 20.7012H268.315ZM265.392 14.6719V27.9999H268.315V22.7919H271.239C271.971 22.7919 272.499 22.9536 272.822 23.2772C273.144 23.6008 273.355 24.111 273.455 24.8079C273.529 25.343 273.585 25.903 273.623 26.4879C273.66 27.0728 273.758 27.5768 273.92 27.9999H276.844C276.707 27.8132 276.602 27.5892 276.528 27.3279C276.465 27.0542 276.416 26.7679 276.379 26.4692C276.353 26.1705 276.335 25.8781 276.323 25.5919C276.309 25.3057 276.297 25.0568 276.285 24.8452C276.26 24.5092 276.211 24.1732 276.137 23.8372C276.074 23.5012 275.969 23.1963 275.82 22.9225C275.671 22.6363 275.478 22.3936 275.243 22.1945C275.006 21.983 274.708 21.8274 274.349 21.7279V21.6905C275.094 21.3919 275.627 20.9563 275.95 20.3839C276.285 19.8114 276.453 19.1332 276.453 18.3492C276.453 17.839 276.36 17.3661 276.174 16.9305C276 16.4825 275.739 16.0905 275.392 15.7545C275.056 15.4185 274.647 15.1572 274.163 14.9705C273.69 14.7714 273.157 14.6719 272.561 14.6719H265.392Z" fill="white"/>
<g clip-path="url(#clip0_2_171)">
<path d="M22.7433 10.8867H10.5103C4.70579 10.8867 0 15.6118 0 21.4424C0 27.2731 4.70579 32.0002 10.5103 32.0002H22.7433C28.5478 32.0002 33.2536 27.2731 33.2536 21.4424C33.2536 15.6118 28.5478 10.8867 22.7433 10.8867ZM22.5141 30.7896C17.3766 30.7896 13.211 26.6051 13.211 21.4444C13.211 16.2838 17.3766 12.0993 22.5141 12.0993C27.6517 12.0993 31.8173 16.2838 31.8173 21.4444C31.8173 26.6051 27.6517 30.7896 22.5141 30.7896Z" fill="white"/>
<path d="M21.2884 6.24599C21.2884 7.57573 21.6322 8.82326 22.2357 9.90431C19.3018 9.39667 17.0696 6.82763 17.0696 3.7345C17.0696 3.34606 17.1044 2.96585 17.174 2.5959C17.7469 2.42121 18.3565 2.32666 18.9867 2.32666C20.071 2.32666 21.0921 2.60618 21.9799 3.09533C21.5361 4.05306 21.2884 5.11973 21.2884 6.24599Z" fill="white"/>
<path d="M29.5379 3.73436C29.5379 6.56031 27.676 8.94849 25.1165 9.72743C24.6766 9.86101 24.2183 9.94939 23.7415 9.98021H23.7396C22.9682 8.93821 22.512 7.64547 22.512 6.24585C22.512 5.37855 22.6878 4.55235 23.005 3.80013C23.899 1.68324 25.9185 0.164419 28.3103 0C29.0815 1.042 29.5379 2.33475 29.5379 3.73436Z" fill="white"/>
</g>
<defs>
<clipPath id="clip0_2_171">
<rect width="33.2536" height="32" fill="white"/>
</clipPath>
</defs>
</svg>
